<svg xmlns="http://www.w3.org/2000/svg" viewBox="0 0 64 64">
  <path fill="#F96A53" d="M32 0c17.7 0 32 14.3 32 32S49.7 64 32 64 0 49.7 0 32 14.4 0 32 0z"/>
  <path fill="#D8B69A" d="M37.3 51.4L35 40l15-14.7v11.1c0 .9-.3 1.7-.9 2.4L37.3 51.4z"/>
  <path fill="#8C6F5B" d="M38.1 37.2L50 25.3c1.9-1.6 3-3.6 3-5.7 0-5.3-6.7-9.5-15-9.5-6 0-10.8 2.6-13.7 5.6l-9.8 9.8 23.6 11.7z"/>
  <path fill="#EFE3BF" d="M41.1 31.4c0-5.3-6.7-9.5-15-9.5s-15 4.3-15 9.5c0 2.1 1.1 4.1 3 5.7v12.5c0 1.3 1.1 2.4 2.4 2.4h19.3c1.3 0 2.4-1.1 2.4-2.4V37.2c1.8-1.6 2.9-3.6 2.9-5.8z"/>
  <defs>
    <path id="a" d="M38.1 37.2L50 25.3c1.9-1.6 3-3.6 3-5.7 0-5.3-6.7-9.5-15-9.5-6 0-10.8 2.6-13.7 5.6l-9.8 9.8 23.6 11.7z"/>
  </defs>
</svg>
